<svg xmlns="http://www.w3.org/2000/svg" viewBox="0 0 100 100">
  <rect width="100" height="100" rx="22" fill="#1A0E00"/>
  <!-- outer petals -->
  <ellipse cx="50" cy="19" rx="9" ry="16" fill="#FBBF24" transform="rotate(0   50 50)"/>
  <ellipse cx="50" cy="19" rx="9" ry="16" fill="#FBBF24" transform="rotate(45  50 50)"/>
  <ellipse cx="50" cy="19" rx="9" ry="16" fill="#FBBF24" transform="rotate(90  50 50)"/>
  <ellipse cx="50" cy="19" rx="9" ry="16" fill="#FBBF24" transform="rotate(135 50 50)"/>
  <!-- inner petals (offset 22.5°) -->
  <ellipse cx="50" cy="22" rx="7" ry="12" fill="#F59E0B" transform="rotate(22.5  50 50)"/>
  <ellipse cx="50" cy="22" rx="7" ry="12" fill="#F59E0B" transform="rotate(67.5  50 50)"/>
  <ellipse cx="50" cy="22" rx="7" ry="12" fill="#F59E0B" transform="rotate(112.5 50 50)"/>
  <ellipse cx="50" cy="22" rx="7" ry="12" fill="#F59E0B" transform="rotate(157.5 50 50)"/>
  <!-- center disk -->
  <circle cx="50" cy="50" r="21" fill="#78350F"/>
  <!-- seed pattern -->
  <circle cx="50" cy="43" r="2.4" fill="#92400E"/>
  <circle cx="55.5" cy="46" r="2.4" fill="#92400E"/>
  <circle cx="57" cy="52" r="2.4" fill="#92400E"/>
  <circle cx="53" cy="57" r="2.4" fill="#92400E"/>
  <circle cx="47" cy="57" r="2.4" fill="#92400E"/>
  <circle cx="43" cy="52" r="2.4" fill="#92400E"/>
  <circle cx="44.5" cy="46" r="2.4" fill="#92400E"/>
  <circle cx="50" cy="50" r="3" fill="#451A03"/>
</svg>
